<?xml version="1.0" encoding="UTF-8" standalone="no"?>
<!DOCTYPE svg PUBLIC "-//W3C//DTD SVG 1.1//EN" "http://www.w3.org/Graphics/SVG/1.1/DTD/svg11.dtd">
<svg version="1.1" xmlns="http://www.w3.org/2000/svg" xmlns:xlink="http://www.w3.org/1999/xlink" preserveAspectRatio="xMidYMid meet" viewBox="124 73 184 204" width="234" height="260"><defs><path d="M175 74L175 274L125 274L125 74L125 74L175 74ZM160 154L140 154L140 259L160 259L160 259L160 154ZM144.95 90.37L143.89 91.08L142.93 91.93L142.08 92.89L141.37 93.95L140.79 95.11L140.36 96.34L140.09 97.64L140 99L140.09 100.36L140.36 101.66L140.79 102.89L141.37 104.05L142.08 105.11L142.93 106.07L143.89 106.92L144.95 107.63L146.11 108.21L147.34 108.64L148.64 108.91L150 109L151.36 108.91L152.66 108.64L153.89 108.21L155.05 107.63L156.11 106.92L157.07 106.07L157.92 105.11L158.63 104.05L159.21 102.89L159.64 101.66L159.91 100.36L160 99L159.91 97.64L159.64 96.34L159.21 95.11L158.63 93.95L157.92 92.89L157.07 91.93L156.11 91.08L155.05 90.37L153.89 89.79L152.66 89.36L151.36 89.09L150 89L148.64 89.09L147.34 89.36L146.11 89.79L146.11 89.79L144.95 90.37Z" id="b18qMAiU9f"></path><path d="M240 74L240 274L190 274L190 74L190 74L240 74ZM225 154L205 154L205 259L225 259L225 259L225 154ZM209.95 90.37L208.89 91.08L207.93 91.93L207.08 92.89L206.37 93.95L205.79 95.11L205.36 96.34L205.09 97.64L205 99L205.09 100.36L205.36 101.66L205.79 102.89L206.37 104.05L207.08 105.11L207.93 106.07L208.89 106.92L209.95 107.63L211.11 108.21L212.34 108.64L213.64 108.91L215 109L216.36 108.91L217.66 108.64L218.89 108.21L220.05 107.63L221.11 106.92L222.07 106.07L222.92 105.11L223.63 104.05L224.21 102.89L224.64 101.66L224.91 100.36L225 99L224.91 97.64L224.64 96.34L224.21 95.11L223.63 93.95L222.92 92.89L222.07 91.93L221.11 91.08L220.05 90.37L218.89 89.79L217.66 89.36L216.36 89.09L215 89L213.64 89.09L212.34 89.36L211.11 89.79L211.11 89.79L209.95 90.37Z" id="cp4op4HrO"></path><path d="M305 74L305 274L255 274L255 74L255 74L305 74ZM290 154L270 154L270 259L290 259L290 259L290 154ZM274.95 90.37L273.89 91.08L272.93 91.93L272.08 92.89L271.37 93.95L270.79 95.11L270.36 96.34L270.09 97.64L270 99L270.09 100.36L270.36 101.66L270.79 102.89L271.37 104.05L272.08 105.11L272.93 106.07L273.89 106.92L274.95 107.63L276.11 108.21L277.34 108.64L278.64 108.91L280 109L281.36 108.91L282.66 108.64L283.89 108.21L285.05 107.63L286.11 106.92L287.07 106.07L287.92 105.11L288.63 104.05L289.21 102.89L289.64 101.66L289.91 100.36L290 99L289.91 97.64L289.64 96.34L289.21 95.11L288.63 93.95L287.92 92.89L287.07 91.93L286.11 91.08L285.05 90.37L283.89 89.79L282.66 89.36L281.36 89.09L280 89L278.64 89.09L277.34 89.36L276.11 89.79L276.11 89.79L274.95 90.37Z" id="a2X2YhzWwW"></path></defs><g><g><use xlink:href="#b18qMAiU9f" opacity="1" fill="#1a496e" fill-opacity="1"></use></g><g><use xlink:href="#cp4op4HrO" opacity="1" fill="#1a496e" fill-opacity="1"></use></g><g><use xlink:href="#a2X2YhzWwW" opacity="1" fill="#1a496e" fill-opacity="1"></use></g></g></svg>